<svg xmlns="http://www.w3.org/2000/svg" viewBox="0 0 1200 800" role="img" aria-labelledby="title desc">
  <title id="title">Travel placeholder</title>
  <desc id="desc">Illustrated travel placeholder image with hills, sun, and water.</desc>
  <defs>
    <linearGradient id="sky" x1="0" y1="0" x2="0" y2="1">
      <stop offset="0%" stop-color="#d7f0f7"/>
      <stop offset="100%" stop-color="#fff3df"/>
    </linearGradient>
    <linearGradient id="water" x1="0" y1="0" x2="1" y2="0">
      <stop offset="0%" stop-color="#0e7490"/>
      <stop offset="100%" stop-color="#38bdf8"/>
    </linearGradient>
  </defs>
  <rect width="1200" height="800" fill="url(#sky)"/>
  <circle cx="940" cy="140" r="74" fill="#f59e0b" opacity="0.9"/>
  <path d="M0 530 C140 450 250 430 390 500 C520 565 655 575 785 495 C935 400 1045 400 1200 500 L1200 800 L0 800 Z" fill="#8cbf9f"/>
  <path d="M0 610 C150 560 275 560 405 615 C550 675 690 675 840 620 C960 575 1080 565 1200 615 L1200 800 L0 800 Z" fill="#4e7d67"/>
  <path d="M0 650 C165 620 300 620 430 650 C590 690 760 705 935 670 C1040 650 1125 645 1200 660 L1200 800 L0 800 Z" fill="url(#water)"/>
  <g fill="#ffffff" opacity="0.85">
    <rect x="95" y="90" width="280" height="96" rx="24"/>
    <text x="140" y="148" font-family="Segoe UI, Arial, sans-serif" font-size="42" font-weight="700" fill="#155e75">
      Travel Buddy
    </text>
  </g>
  <g fill="#ffffff" opacity="0.94">
    <rect x="95" y="640" width="420" height="86" rx="24"/>
    <text x="135" y="693" font-family="Segoe UI, Arial, sans-serif" font-size="34" font-weight="700" fill="#1f2937">
      Image unavailable
    </text>
  </g>
</svg>
